<?xml version="1.0"?>

<svg width="100%" height="100%" viewBox="0 0 146 209" version="1.1" xmlns="http://www.w3.org/2000/svg" xmlns:xlink="http://www.w3.org/1999/xlink" xml:space="preserve" xmlns:serif="http://www.serif.com/" style="fill-rule:evenodd;clip-rule:evenodd;stroke-linejoin:round;stroke-miterlimit:2;">
    <g transform="matrix(1,0,0,1,-2669.890253,-822.788929)">
        <g transform="matrix(1,0,0,1,1077.24732,1314.315988)">
            <g transform="matrix(1.296253,0,0,1.296253,1573.591027,-497.347486)">
                <path d="M83.536,82.834C77.954,77.462 79.329,73.913 79.428,64.963C80.415,60.493 80.748,55.826 80.428,50.963C81.43,46.302 82.764,41.635 84.428,36.963C86.863,34.292 89.196,31.458 91.428,28.463C95.477,26.46 99.477,24.46 103.428,22.463C110.758,20.963 120.428,30.296 120.428,30.963C127.15,40.74 128.15,51.073 123.428,61.963C121.53,67.361 104.987,80.016 101.428,81.963C97.293,84.14 92.794,85.807 87.928,86.963C86.627,86.824 83.901,84.028 83.536,82.834ZM109.428,40.963C106.789,42.618 104.123,44.285 101.428,45.963C100.745,37.514 99.578,37.181 97.928,44.963C96.789,41.879 95.456,38.879 93.928,35.963C93.32,38.528 93.82,40.861 95.428,42.963C96.268,45.315 97.602,47.315 99.428,48.963C102.296,46.931 105.296,45.097 108.428,43.463C109.927,42.624 110.26,41.791 109.428,40.963ZM112.428,57.963C111.764,59.95 110.597,61.616 108.928,62.963C108.062,58.656 107.062,58.323 105.928,61.963C105.509,60.79 104.843,59.79 103.928,58.963C103.98,61.735 105.147,64.068 107.428,65.963C111.082,64.082 112.749,61.416 112.428,57.963ZM94.428,62.963C93.036,64.735 91.869,66.735 90.928,68.963C88.715,64.947 87.715,64.947 87.928,68.963C87.211,68.012 86.378,67.845 85.428,68.463C89.826,72.254 92.826,71.42 94.428,65.963L94.428,62.963ZM69.5,31.5C78.713,41.413 80.047,52.413 73.5,64.5C72.596,65.209 68.663,70.672 67.5,73C61.945,74.519 57.1,75.492 54.5,68.5C53.907,62.5 53.241,56.5 52.5,50.5C52.964,47.113 53.631,43.78 54.5,40.5C56.07,37.683 58.067,34.723 61.5,32C64.128,30.39 66.795,30.223 69.5,31.5ZM59.5,47.5C60.894,49.592 62.728,51.258 65,52.5C67.565,51.623 68.899,49.956 69,47.5C67.691,49.891 66.691,49.891 66,47.5C65.751,48.624 65.251,49.624 64.5,50.5C63.618,49.24 62.618,48.074 61.5,47C60.563,46.308 59.897,46.475 59.5,47.5ZM59.5,56.5C59.119,57.931 58.119,58.764 56.5,59C57.905,60.269 59.571,60.769 61.5,60.5C61.843,58.517 61.176,57.183 59.5,56.5ZM41.774,54.147C49.029,60.382 52.529,68.382 52.274,78.147C50.347,82.242 47.513,85.575 43.774,88.147C37.114,86.798 31.78,83.465 27.774,78.147C26.041,72.301 25.375,66.301 25.774,60.147C27.063,56.191 29.73,53.525 33.774,52.147C37.857,50.756 39.829,53.269 41.774,54.147ZM40.774,73.147C40.903,74.737 41.569,76.07 42.774,77.147C46.884,74.182 46.218,72.848 40.774,73.147ZM36.774,64.147C36.609,69.447 35.109,70.113 32.274,66.147C31.774,67.314 30.941,68.147 29.774,68.647C31.271,70.854 33.271,71.521 35.774,70.647C37.692,68.538 38.026,66.372 36.774,64.147ZM74.5,164C70.179,164.499 60.5,164.5 60.5,164.5C59.264,163.415 57.812,162.332 56.5,160.5C51.095,152.572 46.262,144.239 42,135.5C36.969,125.071 36.302,114.404 40,103.5C43.856,97.111 47.689,90.778 51.5,84.5C54.625,81.766 57.958,79.266 61.5,77C64.367,76.199 71.309,77.504 73.775,78.638C76.739,79.633 81.725,83.283 83,85.5C87.832,90.163 90.832,95.829 92,102.5C92.725,113.601 90.892,124.267 86.5,134.5C84.156,140.586 81.823,146.586 79.5,152.5C77.975,156.385 76.308,160.219 74.5,164ZM67.5,93.5C68.815,94.476 70.148,95.476 71.5,96.5L76.5,93C74.837,92.735 73.337,93.235 72,94.5L71,92.5C69.791,92.653 68.625,92.986 67.5,93.5ZM62.5,146.5C61.672,145.668 60.838,146.001 60,147.5L59,144.5C58.081,144.93 57.247,145.264 56.5,145.5C57.087,148.806 58.753,149.806 61.5,148.5L62.5,146.5ZM70.5,134.5L72.5,135.5C74.905,134.602 76.905,133.102 78.5,131C76.953,130.667 75.62,131.167 74.5,132.5C73.184,129.972 72.017,129.972 71,132.5L68,129.5C68.058,131.435 68.891,133.102 70.5,134.5ZM75.5,109.5C73.574,110.242 71.741,111.242 70,112.5L69,108.5C66.91,109.791 65.576,109.124 65,106.5C64.517,107.448 64.35,108.448 64.5,109.5C67.8,115.895 71.467,115.895 75.5,109.5ZM54.5,101.5C53.91,102.766 53.41,104.099 53,105.5L50,102.5C49.383,103.449 49.549,104.282 50.5,105L46.5,105C48.455,107.071 50.788,107.738 53.5,107C55.291,105.21 55.625,103.377 54.5,101.5ZM45.5,119.5C47.257,121.652 49.423,123.319 52,124.5C54.449,123.056 56.615,121.222 58.5,119C57.833,118.333 57.167,118.333 56.5,119C55.315,120.353 53.981,121.52 52.5,122.5L50.5,118.5C49.808,119.025 49.308,119.692 49,120.5C47.959,118.689 46.793,118.355 45.5,119.5Z" style="fill:rgb(60,60,60);stroke:rgb(32,82,176);stroke-opacity:0;stroke-width:1.93px;"></path>
            </g>
        </g>
        <g transform="matrix(1,0,0,1,1077.24732,1314.315988)">
            <g transform="matrix(1.296253,0,0,1.296253,1573.591027,-497.347486)">
                <path d="M25.662,57.503C23.666,59.336 21.333,59.836 18.662,59.003C17.329,58.003 17.329,57.003 18.662,56.003C17.714,55.52 16.714,55.354 15.662,55.503L15.662,52.503L18.662,51.003C17.756,49.304 17.423,47.47 17.662,45.503C21.971,47.227 22.638,46.227 19.662,42.503C21.527,41.337 23.194,41.67 24.662,43.503C26.204,42.256 27.704,42.256 29.162,43.503C30.419,48.823 29.252,53.49 25.662,57.503Z" style="fill:rgb(60,60,60);stroke:rgb(32,82,176);stroke-opacity:0;stroke-width:1.93px;"></path>
            </g>
        </g>
        <g transform="matrix(1,0,0,1,1077.24732,1314.315988)">
            <g transform="matrix(1.296253,0,0,1.296253,1573.578871,-497.347486)">
                <path d="M102.124,5.468C102.933,7.26 103.433,9.26 103.624,11.468C104.703,9.574 106.037,9.241 107.624,10.468C108.084,13.272 107.584,15.939 106.124,18.468C102.892,21.36 99.226,23.527 95.124,24.968C92.404,25.569 89.737,25.403 87.124,24.468C83.987,21.072 84.654,18.738 89.124,17.468C87.888,16.687 86.888,15.687 86.124,14.468C88.02,13.502 90.02,13.169 92.124,13.468C91.468,8.996 93.134,7.33 97.124,8.468L98.624,11.468L99.624,6.468C100.295,5.715 101.128,5.382 102.124,5.468Z" style="fill:rgb(60,60,60);stroke:rgb(32,82,176);stroke-opacity:0;stroke-width:1.93px;"></path>
            </g>
        </g>
    </g>
</svg>