<?xml version="1.0" encoding="UTF-8" standalone="no"?>
<!DOCTYPE svg PUBLIC "-//W3C//DTD SVG 1.1//EN" "http://www.w3.org/Graphics/SVG/1.1/DTD/svg11.dtd">
<svg width="100%" height="100%" viewBox="0 0 1025 189" version="1.1" xmlns="http://www.w3.org/2000/svg" xmlns:xlink="http://www.w3.org/1999/xlink" xml:space="preserve" xmlns:serif="http://www.serif.com/" style="fill-rule:evenodd;clip-rule:evenodd;stroke-linejoin:round;stroke-miterlimit:2;">
    <g transform="matrix(1,0,0,1,-1263.648561,-3646.394403)">
        <g transform="matrix(4.303641,0,0,4.303641,-4725.541925,-9709.615573)">
            <path d="M1398.407,3120.521C1397.857,3120.171 1397.557,3119.721 1397.557,3119.071L1397.557,3111.821C1397.557,3111.121 1397.757,3110.621 1398.107,3110.321C1398.507,3109.921 1399.207,3109.771 1399.957,3109.771C1401.357,3109.771 1402.357,3110.321 1402.357,3111.821L1402.357,3118.171L1408.207,3118.171L1408.207,3110.021C1408.207,3106.621 1405.457,3103.721 1402.007,3103.721L1397.907,3103.721C1394.507,3103.721 1391.657,3106.621 1391.657,3110.021L1391.707,3119.721C1391.707,3121.971 1392.807,3124.021 1394.757,3125.221L1401.507,3129.421C1402.057,3129.771 1402.357,3130.221 1402.357,3130.871L1402.357,3139.021C1402.357,3140.371 1401.157,3141.121 1399.907,3141.121C1398.657,3141.121 1397.557,3140.371 1397.557,3139.021L1397.557,3131.521L1391.657,3131.521L1391.657,3140.721C1391.657,3144.121 1394.507,3147.021 1397.907,3147.021L1402.007,3147.021C1405.457,3147.021 1408.207,3144.121 1408.207,3140.721L1408.207,3130.221C1408.207,3127.921 1407.157,3125.871 1405.157,3124.671L1398.407,3120.521Z" style="fill:white;fill-rule:nonzero;"/>
            <path d="M1416.507,3146.921L1416.507,3129.571L1419.257,3129.571C1422.807,3129.571 1425.707,3126.671 1425.707,3123.121L1425.707,3110.071C1425.707,3107.171 1423.707,3104.571 1420.907,3103.821L1410.607,3103.821L1410.607,3146.921L1416.507,3146.921ZM1418.357,3109.771C1419.157,3109.771 1419.807,3110.421 1419.807,3111.221L1419.807,3122.171C1419.807,3122.971 1419.157,3123.621 1418.357,3123.621L1416.507,3123.621L1416.507,3109.771L1418.357,3109.771Z" style="fill:white;fill-rule:nonzero;"/>
            <path d="M1427.207,3103.821L1427.207,3146.921L1440.057,3146.921L1440.057,3140.971L1433.107,3140.971L1433.107,3128.921L1438.107,3128.921L1438.107,3122.971L1433.107,3122.971L1433.107,3109.721L1440.057,3109.721L1440.057,3103.821L1427.207,3103.821Z" style="fill:white;fill-rule:nonzero;"/>
            <path d="M1479.457,3135.271L1473.907,3132.221C1471.307,3136.921 1466.307,3139.921 1460.907,3139.921C1452.657,3139.921 1446.107,3133.271 1446.107,3125.021C1446.107,3116.771 1452.607,3110.071 1460.907,3110.071C1464.807,3110.071 1468.557,3111.621 1471.307,3114.371L1475.757,3109.771C1471.807,3105.921 1466.457,3103.621 1460.907,3103.621C1449.107,3103.621 1439.707,3113.321 1439.707,3125.021C1439.707,3136.771 1449.107,3146.371 1460.907,3146.371C1468.657,3146.371 1475.807,3142.071 1479.457,3135.271Z" style="fill:white;fill-rule:nonzero;"/>
            <path d="M1512.407,3135.271L1506.857,3132.221C1504.257,3136.921 1499.257,3139.921 1493.857,3139.921C1485.607,3139.921 1479.057,3133.271 1479.057,3125.021C1479.057,3116.771 1485.557,3110.071 1493.857,3110.071C1497.757,3110.071 1501.507,3111.621 1504.257,3114.371L1508.707,3109.771C1504.757,3105.921 1499.407,3103.621 1493.857,3103.621C1482.057,3103.621 1472.657,3113.321 1472.657,3125.021C1472.657,3136.771 1482.057,3146.371 1493.857,3146.371C1501.607,3146.371 1508.757,3142.071 1512.407,3135.271Z" style="fill:white;fill-rule:nonzero;"/>
            <path d="M1519.607,3146.921L1519.607,3128.921L1524.707,3128.921L1524.707,3146.921L1530.607,3146.921L1530.607,3103.821L1524.707,3103.821L1524.707,3122.971L1519.607,3122.971L1519.607,3103.821L1513.707,3103.821L1513.707,3146.921L1519.607,3146.921Z" style="fill:white;fill-rule:nonzero;"/>
            <rect x="1533.457" y="3103.821" width="5.9" height="43.2" style="fill:white;fill-rule:nonzero;"/>
            <path d="M1542.207,3103.821L1542.207,3146.921L1555.057,3146.921L1555.057,3140.971L1548.107,3140.971L1548.107,3128.921L1553.107,3128.921L1553.107,3122.971L1548.107,3122.971L1548.107,3109.721L1555.057,3109.721L1555.057,3103.821L1542.207,3103.821Z" style="fill:white;fill-rule:nonzero;"/>
            <path d="M1567.407,3146.921L1567.407,3109.721L1572.207,3109.721L1572.207,3103.821L1557.057,3103.821L1557.057,3109.721L1561.507,3109.721L1561.507,3146.921L1567.407,3146.921Z" style="fill:white;fill-rule:nonzero;"/>
            <path d="M1584.557,3146.921L1584.557,3109.721L1589.357,3109.721L1589.357,3103.821L1574.207,3103.821L1574.207,3109.721L1578.657,3109.721L1578.657,3146.921L1584.557,3146.921Z" style="fill:white;fill-rule:nonzero;"/>
            <path d="M1608.557,3103.421C1596.607,3103.421 1587.357,3113.571 1587.357,3125.321C1587.357,3137.121 1596.557,3147.271 1608.557,3147.271C1620.557,3147.271 1629.707,3137.071 1629.707,3125.321C1629.707,3113.571 1620.557,3103.421 1608.557,3103.421ZM1623.357,3125.321C1623.357,3133.621 1617.057,3140.821 1608.557,3140.821C1600.057,3140.821 1593.757,3133.621 1593.757,3125.321C1593.757,3117.071 1600.107,3109.871 1608.557,3109.871C1617.007,3109.871 1623.357,3117.071 1623.357,3125.321Z" style="fill:white;fill-rule:nonzero;"/>
        </g>
        <g transform="matrix(0.274644,0,0,0.274644,1831.223012,3321.935551)">
            <path d="M1478.48,1403.67C1422.26,1411.32 1416.06,1417.52 1408.42,1473.73C1400.77,1417.52 1394.57,1411.32 1338.36,1403.67C1394.57,1396.03 1400.77,1389.83 1408.42,1333.61C1416.06,1389.83 1422.26,1396.03 1478.48,1403.67Z" style="fill:white;fill-rule:nonzero;"/>
        </g>
    </g>
</svg>
